<svg xmlns="http://www.w3.org/2000/svg" xmlns:xlink="http://www.w3.org/1999/xlink" width="237.233" height="46.147" viewBox="0 0 237.233 46.147">
  <defs>
    <clipPath id="clip-path">
      <rect id="Rectangle_140407" data-name="Rectangle 140407" width="105.736" height="46.147" fill="none"/>
    </clipPath>
  </defs>
  <g id="Logo" transform="translate(0 0)">
    <g id="Group_24765" data-name="Group 24765" transform="translate(0 0)" clip-path="url(#clip-path)">
      <path id="Path_19071" data-name="Path 19071" d="M57.7,31.437a2.281,2.281,0,0,0,2.022,1.271,2.363,2.363,0,0,0,2.291-2.434v-.09l-.035-.016a3.741,3.741,0,0,1-2.64,1.128,4.212,4.212,0,0,1-3.953-4.421,4.2,4.2,0,0,1,3.953-4.424,3.687,3.687,0,0,1,2.64,1.147l.035-.018v-.9h2.041v7.591a4.223,4.223,0,0,1-4.243,4.332,4.4,4.4,0,0,1-3.824-2.166Zm2.077-2.024a2.55,2.55,0,1,0-2.349-2.542,2.461,2.461,0,0,0,2.349,2.542" transform="translate(-10.188 -4.129)" fill="#fff"/>
      <path id="Path_19072" data-name="Path 19072" d="M73.306,28.59l1.42,1.378A4.542,4.542,0,0,1,71.5,31.294a4.45,4.45,0,0,1-4.514-4.421,4.378,4.378,0,1,1,8.756,0,1.946,1.946,0,0,1-.037.5H69.025A2.4,2.4,0,0,0,71.41,29.4a2.692,2.692,0,0,0,1.9-.807m.238-2.882.016-.036a2.521,2.521,0,0,0-2.184-1.378,2.481,2.481,0,0,0-2.2,1.378l.018.036Z" transform="translate(-12.322 -4.129)" fill="#fff"/>
      <path id="Path_19073" data-name="Path 19073" d="M80.811,26.873v4.189h-2.04V22.683h2.04V23.7l.037.017a3.322,3.322,0,0,1,2.588-1.27c3.639,0,3.732,3.257,3.732,4.26v4.35h-2.04V26.873c0-1-.016-2.542-2.131-2.542a2.38,2.38,0,0,0-2.185,2.542" transform="translate(-14.49 -4.13)" fill="#fff"/>
      <path id="Path_19074" data-name="Path 19074" d="M94.995,31.294a3.655,3.655,0,0,1-2.659-1.146l-.037.02v4.207H90.261V22.684H92.3v.876l.037.018a3.786,3.786,0,0,1,2.659-1.127,4.2,4.2,0,0,1,3.953,4.421,4.2,4.2,0,0,1-3.953,4.421m-.438-6.963a2.541,2.541,0,1,0,2.349,2.524,2.447,2.447,0,0,0-2.349-2.524" transform="translate(-16.604 -4.13)" fill="#fff"/>
      <path id="Path_19075" data-name="Path 19075" d="M105.7,22.45A3.683,3.683,0,0,1,108.34,23.6l.039-.018v-.9h2.038V31.06h-2.038V30.2l-.039-.034A3.747,3.747,0,0,1,105.7,31.3a4.2,4.2,0,0,1-3.953-4.422A4.2,4.2,0,0,1,105.7,22.45m.437,6.947a2.541,2.541,0,0,0,0-5.067,2.541,2.541,0,0,0,0,5.067" transform="translate(-18.717 -4.129)" fill="#fff"/>
      <path id="Path_19076" data-name="Path 19076" d="M121.068,29.969a4.535,4.535,0,0,1-3.223,1.326,4.424,4.424,0,1,1,0-8.845,4.534,4.534,0,0,1,3.223,1.324L119.629,25.1a2.415,2.415,0,0,0-1.784-.77,2.533,2.533,0,1,0,1.821,4.279Z" transform="translate(-20.847 -4.129)" fill="#fff"/>
      <path id="Path_19077" data-name="Path 19077" d="M127.061,23.822v6.444h-2.04V23.822h-1.413V21.888h1.413v-3.76h2.04v3.76h1.413v1.934Z" transform="translate(-22.738 -3.334)" fill="#fff"/>
      <path id="Path_19078" data-name="Path 19078" d="M33.959,22.874a.344.344,0,0,0-.047-.051.4.4,0,0,0-.078-.087l-7.877-5.295,7.879-5.367a.408.408,0,0,0,0-.674L17.237.071a.408.408,0,0,0-.46,0L.178,11.4a.4.4,0,0,0-.1.107c-.007.011-.019.017-.025.029a.4.4,0,0,0-.057.2V34.4a.407.407,0,0,0,.178.337l16.6,11.333c.008.006.017,0,.025.008s.008.011.015.014a.4.4,0,0,0,.157.039c.011,0,.022.01.033.01A.417.417,0,0,0,17.2,46.1c.009,0,.012-.016.021-.02s.012,0,.018-.006l16.6-11.332a.409.409,0,0,0,.178-.337V23.074h0a.4.4,0,0,0-.055-.2M9.181,17.663l7.825-5.341,7.5,5.121L16.779,22.73a.438.438,0,0,0-.06.069.37.37,0,0,0-.065.073.392.392,0,0,0-.029.1.361.361,0,0,0-.026.092V33.544L9.181,28.479ZM24.545,28.717l-7.131,4.83V23.841Zm.726-.492-7.539-5.157,7.5-5.131,7.645,5.139ZM17.006.9,32.882,11.736l-7.651,5.214-7.994-5.459a.408.408,0,0,0-.46,0L8.771,16.955,1.132,11.74ZM.816,12.515l7.549,5.153V28.7a.408.408,0,0,0,.178.337l8.055,5.5V44.966L.816,34.189ZM33.2,34.189,17.414,44.964V34.533l.281-.19,15.5-10.5Z" transform="translate(0 0)" fill="#fff"/>
    </g>
    <line id="Line_2364" data-name="Line 2364" y2="17" transform="translate(115.736 12.5)" fill="none" stroke="rgba(255,255,255,0.5)" stroke-width="1"/>
    <path id="Path_41811" data-name="Path 41811" d="M.07,0,3.74-9.45H5.18L8.82,0H7.476L6.442-2.819h-4L1.381,0ZM2.856-3.967h3.18l-1.554-4.2H4.436ZM10.171,0V-9.45h1.288V0ZM20.557.14a4.588,4.588,0,0,1-1.925-.377,3.149,3.149,0,0,1-1.3-1.049A3.019,3.019,0,0,1,16.8-2.854h1.349A1.917,1.917,0,0,0,18.9-1.47a2.791,2.791,0,0,0,1.7.476,2.451,2.451,0,0,0,1.53-.415,1.382,1.382,0,0,0,.535-1.157,1.349,1.349,0,0,0-.379-.985,2.3,2.3,0,0,0-1.187-.56L19.609-4.44a3.507,3.507,0,0,1-1.8-.887,2.186,2.186,0,0,1-.621-1.6,2.473,2.473,0,0,1,.391-1.381,2.632,2.632,0,0,1,1.11-.94,3.907,3.907,0,0,1,1.689-.341,4.026,4.026,0,0,1,1.742.353,3.011,3.011,0,0,1,1.2.992,3.081,3.081,0,0,1,.537,1.5H22.507a1.974,1.974,0,0,0-.721-1.284,2.363,2.363,0,0,0-1.477-.437,2.179,2.179,0,0,0-1.349.385,1.246,1.246,0,0,0-.509,1.05,1.224,1.224,0,0,0,.361.89,2.318,2.318,0,0,0,1.163.547l1.554.348a3.372,3.372,0,0,1,1.8.908,2.363,2.363,0,0,1,.6,1.675,2.56,2.56,0,0,1-.889,2.04A3.679,3.679,0,0,1,20.557.14Zm8.05,0a3.227,3.227,0,0,1-1.7-.449,3.143,3.143,0,0,1-1.175-1.266A4.092,4.092,0,0,1,25.307-3.5a4.118,4.118,0,0,1,.428-1.937A3.1,3.1,0,0,1,26.911-6.7a3.26,3.26,0,0,1,1.7-.443,3.277,3.277,0,0,1,1.714.443,3.069,3.069,0,0,1,1.163,1.26A4.173,4.173,0,0,1,31.906-3.5a4.174,4.174,0,0,1-.422,1.931A3.056,3.056,0,0,1,30.314-.3,3.282,3.282,0,0,1,28.607.14Zm0-1.139A1.811,1.811,0,0,0,30.1-1.682,2.813,2.813,0,0,0,30.646-3.5,2.807,2.807,0,0,0,30.1-5.324,1.818,1.818,0,0,0,28.606-6a1.824,1.824,0,0,0-1.478.678A2.77,2.77,0,0,0,26.567-3.5a2.776,2.776,0,0,0,.561,1.818A1.818,1.818,0,0,0,28.606-1ZM33.67,0V-9.8h1.26V0Zm5.922.128a2.507,2.507,0,0,1-1.335-.352,2.4,2.4,0,0,1-.9-.982,3.144,3.144,0,0,1-.321-1.447V-7H38.3v4.076a2.047,2.047,0,0,0,.445,1.4,1.562,1.562,0,0,0,1.24.507A1.734,1.734,0,0,0,41.3-1.547a1.939,1.939,0,0,0,.5-1.391V-7h1.26V0H41.818V-1.209h-.047a2.18,2.18,0,0,1-.855.992A2.484,2.484,0,0,1,39.592.128ZM46.662,0a1.174,1.174,0,0,1-.836-.283,1.119,1.119,0,0,1-.3-.855V-5.992h-1.19V-7h1.2V-9.1h1.232V-7H48.44v1.008H46.783v4.984H48.6V0ZM49.98,0V-7h1.26V0Zm.63-7.957a.764.764,0,0,1-.56-.233.764.764,0,0,1-.233-.56.764.764,0,0,1,.233-.56.764.764,0,0,1,.56-.233.764.764,0,0,1,.56.233.764.764,0,0,1,.233.56.764.764,0,0,1-.233.56A.764.764,0,0,1,50.61-7.957ZM56.3.14a3.227,3.227,0,0,1-1.7-.449,3.143,3.143,0,0,1-1.175-1.266A4.092,4.092,0,0,1,53-3.5a4.118,4.118,0,0,1,.428-1.937A3.1,3.1,0,0,1,54.608-6.7a3.261,3.261,0,0,1,1.7-.443,3.277,3.277,0,0,1,1.714.443,3.069,3.069,0,0,1,1.163,1.26A4.173,4.173,0,0,1,59.6-3.5a4.174,4.174,0,0,1-.422,1.931A3.056,3.056,0,0,1,58.011-.3,3.282,3.282,0,0,1,56.3.14ZM56.3-1a1.811,1.811,0,0,0,1.489-.684A2.813,2.813,0,0,0,58.343-3.5a2.807,2.807,0,0,0-.551-1.823A1.818,1.818,0,0,0,56.3-6a1.824,1.824,0,0,0-1.478.678A2.77,2.77,0,0,0,54.264-3.5a2.776,2.776,0,0,0,.561,1.818A1.818,1.818,0,0,0,56.3-1Zm5.026,1V-7h1.246v1.134h.047a2.172,2.172,0,0,1,.856-.938,2.5,2.5,0,0,1,1.29-.324,2.487,2.487,0,0,1,1.35.365,2.5,2.5,0,0,1,.909,1.007,3.218,3.218,0,0,1,.327,1.479V0h-1.26V-4.062a2.019,2.019,0,0,0-.463-1.405,1.649,1.649,0,0,0-1.289-.513,1.65,1.65,0,0,0-1.288.513,2.015,2.015,0,0,0-.464,1.405V0Zm10.5.14a3.2,3.2,0,0,1-2.052-.625,2.22,2.22,0,0,1-.855-1.671h1.241a1.281,1.281,0,0,0,.517.924,1.991,1.991,0,0,0,1.2.322,1.735,1.735,0,0,0,1.044-.267.894.894,0,0,0,.36-.764q0-.763-1.052-.992L71.071-3.18q-1.888-.4-1.888-1.869a1.868,1.868,0,0,1,.7-1.513,2.78,2.78,0,0,1,1.83-.577,2.856,2.856,0,0,1,1.852.592,2.216,2.216,0,0,1,.827,1.588H73.169a1.341,1.341,0,0,0-.5-.847,1.628,1.628,0,0,0-1.006-.3,1.583,1.583,0,0,0-.946.255.818.818,0,0,0-.354.7.715.715,0,0,0,.249.569,1.764,1.764,0,0,0,.778.329L72.56-4a2.767,2.767,0,0,1,1.424.687,1.732,1.732,0,0,1,.477,1.271,1.968,1.968,0,0,1-.7,1.592A2.906,2.906,0,0,1,71.834.14ZM82.81.14a4.588,4.588,0,0,1-1.925-.377,3.149,3.149,0,0,1-1.3-1.049,3.019,3.019,0,0,1-.534-1.568H80.4a1.917,1.917,0,0,0,.755,1.384,2.791,2.791,0,0,0,1.7.476,2.45,2.45,0,0,0,1.53-.415,1.382,1.382,0,0,0,.535-1.157,1.349,1.349,0,0,0-.379-.985,2.3,2.3,0,0,0-1.187-.56L81.863-4.44a3.507,3.507,0,0,1-1.8-.887,2.186,2.186,0,0,1-.621-1.6,2.473,2.473,0,0,1,.391-1.381,2.632,2.632,0,0,1,1.11-.94,3.907,3.907,0,0,1,1.689-.341,4.026,4.026,0,0,1,1.742.353,3.011,3.011,0,0,1,1.2.992,3.081,3.081,0,0,1,.537,1.5H84.761a1.974,1.974,0,0,0-.721-1.284,2.363,2.363,0,0,0-1.477-.437,2.179,2.179,0,0,0-1.349.385,1.246,1.246,0,0,0-.509,1.05,1.224,1.224,0,0,0,.361.89,2.318,2.318,0,0,0,1.163.547l1.554.348a3.372,3.372,0,0,1,1.8.908,2.363,2.363,0,0,1,.6,1.675,2.56,2.56,0,0,1-.889,2.04A3.679,3.679,0,0,1,82.81.14ZM89.432,0A1.174,1.174,0,0,1,88.6-.283a1.119,1.119,0,0,1-.3-.855V-5.992H87.1V-7h1.2V-9.1h1.232V-7H91.21v1.008H89.553v4.984h1.815V0ZM95.62.14a3.227,3.227,0,0,1-1.7-.449,3.143,3.143,0,0,1-1.175-1.266A4.092,4.092,0,0,1,92.321-3.5a4.118,4.118,0,0,1,.428-1.937A3.1,3.1,0,0,1,93.924-6.7a3.261,3.261,0,0,1,1.7-.443,3.277,3.277,0,0,1,1.714.443A3.069,3.069,0,0,1,98.5-5.437,4.173,4.173,0,0,1,98.919-3.5,4.174,4.174,0,0,1,98.5-1.569,3.056,3.056,0,0,1,97.328-.3,3.282,3.282,0,0,1,95.62.14ZM95.62-1a1.811,1.811,0,0,0,1.489-.684A2.813,2.813,0,0,0,97.659-3.5a2.807,2.807,0,0,0-.551-1.823A1.818,1.818,0,0,0,95.62-6a1.824,1.824,0,0,0-1.478.678A2.77,2.77,0,0,0,93.581-3.5a2.776,2.776,0,0,0,.561,1.818A1.818,1.818,0,0,0,95.62-1Zm5.157,1V-7h1.2v1.4h.047a2.208,2.208,0,0,1,.767-1.057,2.106,2.106,0,0,1,1.3-.4h.52v1.12h-.586a1.8,1.8,0,0,0-1.476.618,2.543,2.543,0,0,0-.51,1.668V0Zm7.828.14a3.214,3.214,0,0,1-1.694-.449,3.117,3.117,0,0,1-1.169-1.272,4.182,4.182,0,0,1-.425-1.942,4.141,4.141,0,0,1,.418-1.919A3.086,3.086,0,0,1,106.88-6.7a3.115,3.115,0,0,1,1.655-.443,3.026,3.026,0,0,1,1.559.4A2.831,2.831,0,0,1,111.171-5.6a3.7,3.7,0,0,1,.4,1.764v.558h-5.033a2.67,2.67,0,0,0,.624,1.692,1.848,1.848,0,0,0,1.436.625,1.8,1.8,0,0,0,1.072-.315,1.522,1.522,0,0,0,.594-.854h1.288a2.756,2.756,0,0,1-.565,1.218,2.794,2.794,0,0,1-1.025.779A3.264,3.264,0,0,1,108.605.14Zm-2.018-4.37h3.757a2.1,2.1,0,0,0-.575-1.345,1.7,1.7,0,0,0-1.24-.482,1.785,1.785,0,0,0-1.266.483A2.363,2.363,0,0,0,106.587-4.23Z" transform="translate(125.667 26)" fill="#fff"/>
  </g>
</svg>
